<svg xmlns="http://www.w3.org/2000/svg" viewBox="0 0 48 48" width="48" height="48">
  <path fill="#409EFF" d="M24 46c12.15 0 22-9.85 22-22S36.15 2 24 2 2 11.85 2 24s9.85 22 22 22Z"/>
  <path d="M18 14h10l5 5v15a3 3 0 0 1-3 3H18a3 3 0 0 1-3-3V17a3 3 0 0 1 3-3Z" fill="none" stroke="#fff" stroke-width="2.6" stroke-linecap="round" stroke-linejoin="round"/>
  <path d="M28 14v6h6" fill="none" stroke="#fff" stroke-width="2.6" stroke-linecap="round" stroke-linejoin="round"/>
  <path d="M24 32V22" fill="none" stroke="#fff" stroke-width="2.6" stroke-linecap="round" stroke-linejoin="round"/>
  <path d="M20.5 25.5 24 22l3.5 3.5" fill="none" stroke="#fff" stroke-width="2.6" stroke-linecap="round" stroke-linejoin="round"/>
</svg>
